<svg width="161" height="38" fill="none" xmlns="http://www.w3.org/2000/svg"><path fill-rule="evenodd" clip-rule="evenodd" d="M0 25.026v.015c.001.313.031.646.079.978.232 1.628.91 3.167 1.927 4.477C5.542 35.054 10.806 38 17.454 38c10.71 0 19.389-8.487 19.368-18.948C36.802 8.566 28.176 0 17.437 0c-4.04 0-7.741 1.171-10.683 3.108-.738.485-.835 1.622-.268 2.293.496.587 1.492.881 2.135.45a16.004 16.004 0 018.898-2.697h.02c3.037.117 5.371 1.5 6.768 3.926.204.354.341.776.506 1.172.156.371.964 1.454.819 2.022-.144.562-.406.89.056 1.436.386.457 1.299 1.711 2.051 2.89.267.419.842 1.06 1.02 1.481.139.33.066.564-.038.738-.181.303-.579.468-1.041.56-.305.06-.774.013-.934.223-.166.221.092.705.136.812.09.218.256.295.105.516-.225.33-1.21.398-.485.657.24.087.628.39.404.72-.226.33-.689.503-.464 1.272.058.194.137.333.218.456.227.344.297.768.336 1.176.046.48-.307.921-.658 1.099-.76.385-2.688.577-4.045 1.137a2.25 2.25 0 00-1.067.9c-.215.353-.406.81-.362 1.285.093 1.016-.1 2.21-.814 2.575-.714.363-1.19 1.375-1.19 1.375h-.002c-.335.805-.63 1.486-.82 1.856-.224.44-.809 2.033-2.611.713-.5-.366-1.943-2.068-2.684-3.85-.626-1.504-.605-3.106-.564-3.577.09-1.029 1.873-1.274 2.13-1.34.256-.064 1.004-.043 1.315.11.313.152 1.093.086 1.25-.11.155-.195.48-.276.48-.276.326-.01.611-.026.835-.057 1.22-.174 3.3-.334 4.385-2.352 1.086-2.017.386-3.672.163-3.745-.222-.072-1.857-.29-3.686-.566-1.385-.208-1.49-1.16-1.46-1.608a.972.972 0 00-.158-.606c-.19-.282-.559-.705-1.266-1.197-1.293-.9-3.152-1.016-4.534-1.48-1.112-.373-1.59-2.435-1.733-3.23a.769.769 0 00-.248-.442.028.028 0 00-.046.013c-.05.195-.268.988-.485.988-.145 0-.642-.705-.777-.9a.04.04 0 00-.065.001c-.214.357-1.47 2.466-1.635 3.224-.338 1.539.45 1.979-1.351 4.178-1.802 2.199-4.166 3.298-4.955 5.277 0 0-.338.88-.338 2.42z" fill="#fff"/><path d="M160.507 11.901v14.235c0 1.021-.893 1.869-1.94 1.869-.765 0-1.302-.349-1.812-1.096l-5.769-8.726v7.953c0 1.096-.869 1.869-1.915 1.869-1.047 0-1.915-.773-1.915-1.87V11.902c0-1.022.868-1.87 1.915-1.87.791 0 1.353.35 1.838 1.098l5.769 8.725v-7.953c0-1.096.868-1.87 1.915-1.87 1.047 0 1.914.774 1.914 1.87zm-26.574 3.94l-1.71 5.184h3.421l-1.711-5.185zm7.174 9.722c.102.274.128.523.128.697 0 .997-.791 1.745-1.89 1.745-.765 0-1.531-.424-1.786-1.171l-.792-2.418H131.1l-.791 2.418c-.255.747-1.022 1.171-1.787 1.171-1.098 0-1.889-.748-1.889-1.745 0-.174.025-.423.127-.698l5.233-14.234c.307-.822 1.124-1.296 1.94-1.296.818 0 1.635.473 1.941 1.296l5.233 14.235zM56.765 10.281c1.097 0 1.838.773 1.838 1.77 0 1.021-.74 1.795-1.838 1.795h-5.77v3.066h5.437c1.098 0 1.84.773 1.84 1.77 0 1.022-.742 1.795-1.84 1.795h-5.437v5.634c0 1.146-.817 1.894-1.914 1.894-1.098 0-1.915-.748-1.915-1.894V12.375c0-1.147.995-2.094 2.222-2.094h7.377zm63.944 1.57v14.285c0 1.096-.867 1.869-1.914 1.869s-1.914-.773-1.914-1.87v-7.977l-2.885 4.238c-.409.623-.945.923-1.685.923-.74 0-1.302-.3-1.711-.922l-2.858-4.264v8.003c0 1.096-.869 1.869-1.915 1.869-1.048 0-1.915-.773-1.915-1.87V11.852c0-1.096.765-1.82 1.915-1.82.842 0 1.327.35 1.838 1.147l4.646 7.005 4.672-7.005c.51-.773.969-1.146 1.812-1.146 1.149 0 1.914.723 1.914 1.82zm-33.39 4.513v5.31c0 1.82 1.124 2.89 3.013 2.89 1.89 0 3.012-1.07 3.012-2.89v-5.31c0-1.82-1.123-2.892-3.012-2.892-1.89 0-3.012 1.072-3.012 2.892zm9.855.249v4.811c0 4.238-2.783 6.581-6.842 6.581-4.059 0-6.841-2.343-6.841-6.58v-4.812c0-4.238 2.782-6.58 6.841-6.58s6.842 2.342 6.842 6.58zM68.379 13.72v3.84h2.962c1.378 0 2.22-.599 2.22-1.92 0-1.322-.842-1.92-2.22-1.92h-2.962zm2.962-3.44c3.803 0 6.049 1.994 6.049 5.36 0 2.318-1.198 4.013-3.343 4.811l3.165 4.711c.178.3.281.623.281.973 0 1.022-.868 1.87-1.915 1.87-.663 0-1.225-.3-1.557-.773L69.86 21h-1.481v5.111c0 1.146-.817 1.894-1.915 1.894s-1.914-.748-1.914-1.894V12.375c0-1.147.996-2.094 2.22-2.094h4.57z" fill="#fff"/></svg>