<svg width="44" height="45" fill="none" xmlns="http://www.w3.org/2000/svg"><g clip-path="url(#clip0_897_108)"><path d="M22 44.734c12.15 0 22-9.85 22-22s-9.85-22-22-22-22 9.85-22 22 9.85 22 22 22z" fill="#00A1F7"/><path fill-rule="evenodd" clip-rule="evenodd" d="M9.958 22.502c6.414-2.794 10.69-4.636 12.83-5.526 6.11-2.541 7.38-2.983 8.207-2.997.182-.003.589.042.852.256.391.317.394 1.006.35 1.461-.33 3.48-1.763 11.921-2.492 15.817-.309 1.649-.916 2.202-1.504 2.256-1.277.117-2.247-.845-3.485-1.656-1.936-1.269-3.03-2.06-4.91-3.298-2.172-1.431-.764-2.218.474-3.503.324-.337 5.953-5.457 6.062-5.921.014-.058.027-.275-.102-.39-.129-.114-.319-.075-.456-.044-.194.044-3.287 2.09-9.28 6.134-.877.603-1.673.897-2.385.881-.786-.017-2.297-.444-3.42-.809-1.378-.448-2.473-.685-2.377-1.445.05-.396.595-.802 1.636-1.216z" fill="#141414"/></g><defs><clipPath id="clip0_897_108"><path fill="#fff" transform="translate(0 .734)" d="M0 0h44v44H0z"/></clipPath></defs></svg>