<svg width="47" height="47" fill="none" xmlns="http://www.w3.org/2000/svg"><g clip-path="url(#clip0_897_112)"><path d="M23.5.66c-12.703 0-23 10.297-23 23 0 12.702 10.297 23 23 23s23-10.298 23-23c0-12.704-10.297-23-23-23zm8.845 25.948s2.035 2.008 2.535 2.94c.015.02.022.039.027.048.203.343.251.609.15.808-.167.33-.742.493-.939.507h-3.593c-.25 0-.772-.064-1.404-.5-.487-.34-.966-.899-1.433-1.443-.697-.81-1.301-1.509-1.91-1.509a.73.73 0 00-.227.036c-.46.148-1.05.805-1.05 2.554 0 .546-.43.86-.735.86H22.12c-.56 0-3.481-.197-6.069-2.925-3.167-3.343-6.018-10.046-6.042-10.108-.18-.434.192-.666.597-.666h3.63c.483 0 .641.294.752.555.129.305.603 1.515 1.382 2.875 1.263 2.219 2.037 3.12 2.657 3.12a.72.72 0 00.333-.086c.81-.45.659-3.338.623-3.937 0-.112-.003-1.291-.417-1.857-.297-.41-.803-.565-1.11-.622.125-.172.288-.31.477-.405.556-.278 1.558-.319 2.552-.319h.553c1.079.014 1.357.084 1.747.182.79.19.808.7.738 2.446a38.194 38.194 0 00-.043 1.718c0 .144-.007.297-.007.46-.024.889-.053 1.898.575 2.312a.519.519 0 00.273.08c.218 0 .874 0 2.652-3.05a23.273 23.273 0 001.425-3.053c.037-.062.142-.254.267-.328a.637.637 0 01.297-.07h4.266c.465 0 .784.07.844.25.105.284-.02 1.154-1.967 3.792l-.87 1.148c-1.765 2.314-1.765 2.431.11 4.187z" fill="#00A1F7"/></g><defs><clipPath id="clip0_897_112"><path fill="#fff" transform="translate(.5 .734)" d="M0 0h46v46H0z"/></clipPath></defs></svg>