<svg width="44" height="45" fill="none" xmlns="http://www.w3.org/2000/svg"><g clip-path="url(#clip0_897_114)" fill="#00A1F7"><path d="M19.07 26.97l7.201-4.227-7.201-4.228v8.456z"/><path d="M22 .734c-12.152 0-22 9.849-22 22 0 12.152 9.848 22 22 22s22-9.848 22-22c0-12.151-9.848-22-22-22zM33 26.67c0 3.79-3.79 3.79-3.79 3.79H14.79C11 30.46 11 26.67 11 26.67v-7.863c0-3.79 3.79-3.79 3.79-3.79h14.42c3.79 0 3.79 3.79 3.79 3.79v7.863z"/></g><defs><clipPath id="clip0_897_114"><path fill="#fff" transform="translate(0 .734)" d="M0 0h44v44H0z"/></clipPath></defs></svg>