<svg width="25" height="25" viewBox="0 0 25 25" fill="none" xmlns="http://www.w3.org/2000/svg">
<path d="M5.62589 4.41667H23.3887L20.972 12.875H6.9272M22.1803 17.7083H7.68034L5.26367 2H1.63867M8.88867 22.5417C8.88867 23.209 8.34768 23.75 7.68034 23.75C7.013 23.75 6.47201 23.209 6.47201 22.5417C6.47201 21.8743 7.013 21.3333 7.68034 21.3333C8.34768 21.3333 8.88867 21.8743 8.88867 22.5417ZM22.1803 22.5417C22.1803 23.209 21.6394 23.75 20.972 23.75C20.3046 23.75 19.7637 23.209 19.7637 22.5417C19.7637 21.8743 20.3046 21.3333 20.972 21.3333C21.6394 21.3333 22.1803 21.8743 22.1803 22.5417Z" stroke="#758087" stroke-width="2.41667" stroke-linecap="round" stroke-linejoin="round"/>
</svg>
