<svg width="161" height="38" viewBox="0 0 161 38" fill="none" xmlns="http://www.w3.org/2000/svg">
<path fill-rule="evenodd" clip-rule="evenodd" d="M0 25.0255V25.0405C0.00100526 25.3536 0.031163 25.6866 0.0786929 26.0192C0.310939 27.6474 0.988452 29.1857 2.00559 30.4964C5.54165 35.0545 10.8063 38 17.4541 38C28.1636 38 36.8427 29.5133 36.8223 19.0519C36.8022 8.56599 28.1764 1.52588e-05 17.4373 1.52588e-05C13.3963 1.52588e-05 9.69604 1.17136 6.75418 3.10756C6.01578 3.59346 5.91852 4.73038 6.48574 5.40099C6.98177 5.98764 7.97833 6.28217 8.62063 5.85176C11.225 4.10367 14.3372 3.15413 17.519 3.15413C17.5257 3.15413 17.5328 3.15456 17.5394 3.15456C20.5755 3.2709 22.9103 4.6534 24.307 7.07957C24.5109 7.43412 24.648 7.85603 24.8132 8.25248C24.9687 8.62344 25.7767 9.70589 25.6318 10.2742C25.4882 10.8363 25.2258 11.1634 25.6877 11.7102C26.0737 12.1669 26.987 13.4212 27.7392 14.5996C28.0062 15.0186 28.5814 15.6596 28.7594 16.0815C28.898 16.4115 28.8254 16.6448 28.721 16.819C28.5395 17.1221 28.1422 17.2868 27.6799 17.3786C27.3751 17.4387 26.9062 17.3922 26.7461 17.6024C26.58 17.8231 26.8377 18.307 26.8817 18.4143C26.9727 18.6319 27.1384 18.7088 26.9875 18.93C26.7621 19.2601 25.7777 19.3284 26.5021 19.5872C26.7421 19.6735 27.1302 19.9771 26.9057 20.3066C26.6802 20.6362 26.2173 20.8099 26.4424 21.5794C26.4997 21.773 26.5794 21.9124 26.6603 22.0351C26.8873 22.3788 26.9573 22.8031 26.9962 23.2106C27.0417 23.6914 26.6889 24.1323 26.3381 24.31C25.5787 24.695 23.6503 24.8868 22.2927 25.4474C21.8492 25.6301 21.4734 25.9432 21.2264 26.3471C21.0111 26.6997 20.8204 27.1566 20.8644 27.6324C20.9569 28.6485 20.7641 29.8428 20.0502 30.2068C19.3359 30.5698 18.8593 31.5824 18.8593 31.5824H18.8582C18.5228 32.3873 18.2277 33.0683 18.0385 33.4377C17.8135 33.8776 17.2291 35.4709 15.427 34.1514C14.9273 33.7854 13.4837 32.0827 12.7429 30.3016C12.1174 28.7968 12.1384 27.1951 12.1793 26.7236C12.2687 25.6951 14.0519 25.4499 14.3087 25.3846C14.5654 25.3196 15.3125 25.3411 15.6244 25.4934C15.9368 25.6461 16.7171 25.5803 16.8731 25.3846C17.0291 25.1888 17.3533 25.1084 17.3533 25.1084C17.6796 25.0979 17.9655 25.0825 18.1888 25.051C19.4081 24.8767 21.4887 24.717 22.5744 22.6992C23.6596 20.6821 22.9605 19.0269 22.7375 18.9545C22.515 18.8822 20.8798 18.6639 19.0506 18.3884C17.6657 18.1796 17.5605 17.2289 17.591 16.7805C17.6049 16.5668 17.5532 16.3531 17.433 16.1739C17.2434 15.8918 16.8741 15.4693 16.167 14.9775C14.8737 14.0774 13.0154 13.9614 11.6331 13.4971C10.5214 13.1237 10.0438 11.0615 9.89957 10.2671C9.86636 10.0839 9.77781 9.93959 9.65212 9.82521C9.63676 9.81119 9.61109 9.81828 9.60603 9.83825C9.55587 10.0334 9.33757 10.8263 9.12131 10.8263C8.97605 10.8263 8.47945 10.1209 8.3445 9.92514C8.3287 9.90208 8.29389 9.90321 8.27912 9.92714C8.06472 10.2841 6.80984 12.3932 6.64372 13.1506C6.30611 14.6899 7.09424 15.1298 5.29259 17.3288C3.49051 19.5277 1.12658 20.6272 0.338018 22.6064C0.338018 22.6064 0 23.4862 0 25.0255Z" fill="white"/>
<path d="M160.507 11.9012V26.1356C160.507 27.1574 159.614 28.0049 158.567 28.0049C157.802 28.0049 157.265 27.6564 156.755 26.9087L150.986 18.1833V26.1356C150.986 27.2322 150.117 28.0049 149.071 28.0049C148.024 28.0049 147.156 27.2322 147.156 26.1356V11.9012C147.156 10.8794 148.024 10.0319 149.071 10.0319C149.862 10.0319 150.424 10.3809 150.909 11.1286L156.678 19.854V11.9012C156.678 10.8046 157.546 10.0319 158.593 10.0319C159.64 10.0319 160.507 10.8046 160.507 11.9012ZM133.933 15.8402L132.223 21.0251H135.644L133.933 15.8402ZM141.107 25.5625C141.209 25.8367 141.235 26.0858 141.235 26.2601C141.235 27.2569 140.444 28.0054 139.345 28.0054C138.58 28.0054 137.814 27.5814 137.559 26.8335L136.767 24.4156H131.1L130.309 26.8335C130.054 27.5814 129.287 28.0054 128.522 28.0054C127.424 28.0054 126.633 27.2569 126.633 26.2601C126.633 26.0858 126.658 25.8367 126.76 25.5625L131.993 11.3284C132.3 10.5055 133.117 10.0319 133.933 10.0319C134.751 10.0319 135.568 10.5055 135.874 11.3284L141.107 25.5625Z" fill="white"/>
<path d="M56.7647 10.2811C57.8623 10.2811 58.6026 11.0537 58.6026 12.0505C58.6026 13.0724 57.8623 13.8458 56.7647 13.8458H50.9951V16.9121H56.4324C57.5304 16.9121 58.2712 17.685 58.2712 18.6821C58.2712 19.7041 57.5304 20.4768 56.4324 20.4768H50.9951V26.1108C50.9951 27.2569 50.178 28.0048 49.0806 28.0048C47.9827 28.0048 47.166 27.2569 47.166 26.1108V12.3755C47.166 11.2283 48.1615 10.2811 49.3875 10.2811H56.7647ZM120.709 11.8512V26.1356C120.709 27.2322 119.842 28.0048 118.795 28.0048C117.748 28.0048 116.881 27.2322 116.881 26.1356V18.158L113.996 22.3965C113.587 23.0195 113.051 23.3187 112.311 23.3187C111.571 23.3187 111.009 23.0195 110.6 22.3965L107.742 18.1333V26.1356C107.742 27.2322 106.873 28.0048 105.827 28.0048C104.779 28.0048 103.912 27.2322 103.912 26.1356V11.8512C103.912 10.7553 104.677 10.0319 105.827 10.0319C106.669 10.0319 107.154 10.3809 107.665 11.1783L112.311 18.1833L116.983 11.1783C117.493 10.4054 117.952 10.0319 118.795 10.0319C119.944 10.0319 120.709 10.7553 120.709 11.8512ZM87.3199 16.3638V21.6732C87.3199 23.4933 88.4426 24.5647 90.3323 24.5647C92.2212 24.5647 93.3442 23.4933 93.3442 21.6732V16.3638C93.3442 14.5443 92.2212 13.4719 90.3323 13.4719C88.4426 13.4719 87.3199 14.5443 87.3199 16.3638ZM97.1739 16.6129V21.4244C97.1739 25.6618 94.3909 28.0054 90.3323 28.0054C86.2732 28.0054 83.491 25.6618 83.491 21.4244V16.6129C83.491 12.375 86.2732 10.0324 90.3323 10.0324C94.3909 10.0324 97.1739 12.375 97.1739 16.6129ZM68.3788 13.7213V17.5604H71.3405C72.7189 17.5604 73.5614 16.9621 73.5614 15.6406C73.5614 14.3193 72.7189 13.7213 71.3405 13.7213H68.3788ZM71.3405 10.2811C75.1443 10.2811 77.39 12.275 77.39 15.6406C77.39 17.9589 76.1915 19.6541 74.0466 20.4521L77.212 25.1635C77.39 25.4627 77.493 25.7863 77.493 26.1361C77.493 27.1579 76.6249 28.0054 75.5784 28.0054C74.9145 28.0054 74.353 27.7062 74.0213 27.2327L69.8599 20.9999H68.3788V26.111C68.3788 27.2574 67.5621 28.0054 66.4645 28.0054C65.366 28.0054 64.5499 27.2574 64.5499 26.111V12.375C64.5499 11.2283 65.5456 10.2811 66.7708 10.2811H71.3405Z" fill="white"/>
</svg>
