<svg width="44" height="45" viewBox="0 0 44 45" fill="none" xmlns="http://www.w3.org/2000/svg">
<g clip-path="url(#clip0_897_108)">
<path d="M22 44.7344C34.1503 44.7344 44 34.8846 44 22.7344C44 10.5841 34.1503 0.734375 22 0.734375C9.84974 0.734375 0 10.5841 0 22.7344C0 34.8846 9.84974 44.7344 22 44.7344Z" fill="#00A1F7"/>
<path fill-rule="evenodd" clip-rule="evenodd" d="M9.95844 22.5023C16.3719 19.708 20.6485 17.8659 22.7883 16.9759C28.8979 14.4347 30.1675 13.9933 30.9949 13.9787C31.1769 13.9755 31.5838 14.0206 31.8474 14.2345C32.2384 14.5518 32.2407 15.2405 32.1973 15.6963C31.8661 19.1751 30.4336 27.617 29.7047 31.5132C29.3963 33.1618 28.7891 33.7146 28.2012 33.7687C26.9237 33.8863 25.9536 32.9244 24.7161 32.1133C22.7799 30.844 21.686 30.0539 19.8064 28.8153C17.6344 27.384 19.0425 26.5973 20.2803 25.3116C20.6043 24.9751 26.2333 19.8551 26.3423 19.3906C26.3559 19.3325 26.3685 19.1159 26.2399 19.0016C26.1112 18.8873 25.9214 18.9263 25.7844 18.9575C25.5902 19.0015 22.497 21.0461 16.5047 25.091C15.6267 25.6939 14.8314 25.9877 14.1189 25.9723C13.3334 25.9553 11.8224 25.5282 10.6991 25.163C9.32138 24.7152 8.22637 24.4783 8.32176 23.7178C8.37143 23.3215 8.91696 22.9164 9.95844 22.5023Z" fill="#141414"/>
</g>
<defs>
<clipPath id="clip0_897_108">
<rect width="44" height="44" fill="white" transform="translate(0 0.734375)"/>
</clipPath>
</defs>
</svg>
