<svg width="47" height="47" viewBox="0 0 47 47" fill="none" xmlns="http://www.w3.org/2000/svg">
<g clip-path="url(#clip0_897_112)">
<path d="M23.5 0.65918C10.7973 0.65918 0.5 10.9565 0.5 23.6592C0.5 36.3619 10.7973 46.6592 23.5 46.6592C36.2027 46.6592 46.5 36.3619 46.5 23.6592C46.5 10.9565 36.2027 0.65918 23.5 0.65918ZM32.3454 26.6084C32.3454 26.6084 34.3795 28.6162 34.8802 29.5481C34.8946 29.5673 34.9018 29.5865 34.9066 29.5961C35.1102 29.9387 35.1581 30.2046 35.0575 30.4035C34.8898 30.7341 34.3148 30.897 34.1183 30.9114H30.5246C30.2754 30.9114 29.7531 30.8467 29.1206 30.4106C28.6343 30.0704 28.1551 29.5122 27.6879 28.9683C26.9907 28.1586 26.387 27.459 25.7784 27.459C25.7011 27.4588 25.6243 27.471 25.5508 27.4949C25.0908 27.6434 24.5015 28.2999 24.5015 30.0489C24.5015 30.5951 24.0702 30.909 23.7659 30.909H22.12C21.5594 30.909 18.6389 30.7125 16.0514 27.9837C12.8841 24.6415 10.033 17.9379 10.0091 17.8756C9.82937 17.442 10.2007 17.2096 10.6056 17.2096H14.2353C14.7193 17.2096 14.8774 17.5043 14.9876 17.7654C15.117 18.0697 15.5914 19.2796 16.37 20.6404C17.6326 22.859 18.4065 23.7598 19.027 23.7598C19.1433 23.7584 19.2576 23.7288 19.36 23.6736C20.1698 23.2231 20.0189 20.3362 19.9829 19.7372C19.9829 19.6246 19.9805 18.4458 19.566 17.8804C19.269 17.4707 18.7634 17.315 18.4568 17.2575C18.5809 17.0862 18.7444 16.9474 18.9335 16.8526C19.4894 16.5747 20.4908 16.534 21.4851 16.534H22.0385C23.1167 16.5483 23.3946 16.6178 23.7851 16.7161C24.5757 16.9053 24.5925 17.4156 24.523 19.1622C24.5015 19.6581 24.4799 20.2188 24.4799 20.88C24.4799 21.0238 24.4727 21.1771 24.4727 21.34C24.4487 22.2289 24.42 23.2375 25.0477 23.652C25.1296 23.7033 25.2242 23.7307 25.3208 23.7311C25.5389 23.7311 26.1953 23.7311 27.973 20.6812C28.5213 19.6995 28.9977 18.6794 29.3985 17.6289C29.4345 17.5666 29.5399 17.3749 29.6645 17.3006C29.7564 17.2538 29.8584 17.2299 29.9616 17.2312H34.2285C34.6933 17.2312 35.012 17.3006 35.0719 17.4803C35.1773 17.7654 35.0527 18.6351 33.1049 21.2729L32.2352 22.4205C30.4695 24.7349 30.4695 24.8523 32.3454 26.6084Z" fill="#00A1F7"/>
</g>
<defs>
<clipPath id="clip0_897_112">
<rect width="46" height="46" fill="white" transform="translate(0.5 0.734375)"/>
</clipPath>
</defs>
</svg>
