<svg width="44" height="45" viewBox="0 0 44 45" fill="none" xmlns="http://www.w3.org/2000/svg">
<g clip-path="url(#clip0_897_114)">
<path d="M19.0695 26.9709L26.2711 22.7428L19.0695 18.5146V26.9709Z" fill="#00A1F7"/>
<path d="M22 0.734375C9.84844 0.734375 0 10.5828 0 22.7344C0 34.8859 9.84844 44.7344 22 44.7344C34.1516 44.7344 44 34.8859 44 22.7344C44 10.5828 34.1516 0.734375 22 0.734375ZM33 26.6703C33 30.4602 29.2102 30.4602 29.2102 30.4602H14.7898C11 30.4602 11 26.6703 11 26.6703V18.807C11 15.0172 14.7898 15.0172 14.7898 15.0172H29.2102C33 15.0172 33 18.807 33 18.807V26.6703Z" fill="#00A1F7"/>
</g>
<defs>
<clipPath id="clip0_897_114">
<rect width="44" height="44" fill="white" transform="translate(0 0.734375)"/>
</clipPath>
</defs>
</svg>
